<?xml version="1.0" encoding="UTF-8"?>
<!DOCTYPE svg PUBLIC "-//W3C//DTD SVG 1.1//EN" "http://www.w3.org/Graphics/SVG/1.1/DTD/svg11.dtd">
<svg version="1.1" xmlns="http://www.w3.org/2000/svg" xmlns:xlink="http://www.w3.org/1999/xlink" x="0" y="0" width="24" height="24" viewBox="0, 0, 24, 24">
  <g id="Layer_1">
    <path d="M18.067,8.189 L18.253,5.451 L19.29,5.451 L18.627,3.828 L17.844,3.828 L17.286,1.744 L6.714,1.744 L6.156,3.827 L5.373,3.827 L4.71,5.451 L5.747,5.451 L5.933,8.189 L5.862,8.189 L6.608,19.553 L6.701,19.553 L6.884,22.256 L17.116,22.256 L17.691,13.76 L18.138,8.189 L18.067,8.189 z M5.341,5.027 L5.658,4.252 L6.482,4.252 L7.04,2.169 L16.96,2.169 L17.518,4.252 L18.342,4.252 L18.659,5.027 L18.281,5.027 L5.719,5.027 L5.341,5.027 z M7.28,21.831 L7.126,19.553 L11.034,19.553 L13.783,10.285 L13.787,10.275 C13.922,9.967 13.925,9.679 13.797,9.395 C13.535,8.812 12.789,8.401 12.316,8.189 L6.358,8.189 L6.172,5.451 L17.827,5.451 L17.642,8.189 L13.077,8.189 C13.492,8.445 13.915,8.798 14.119,9.249 C14.286,9.621 14.285,10.01 14.116,10.406 L11.403,19.553 L16.874,19.553 L16.72,21.831 L7.28,21.831 z" fill="#000000"/>
  </g>
</svg>
